<?xml version="1.0" encoding="UTF-8" standalone="no"?>
<!DOCTYPE svg PUBLIC "-//W3C//DTD SVG 1.1//EN" "http://www.w3.org/Graphics/SVG/1.1/DTD/svg11.dtd">
<svg width="100%" height="100%" viewBox="0 0 150 150" version="1.1" xmlns="http://www.w3.org/2000/svg" xmlns:xlink="http://www.w3.org/1999/xlink" xml:space="preserve" xmlns:serif="http://www.serif.com/" style="fill-rule:evenodd;clip-rule:evenodd;stroke-linejoin:round;stroke-miterlimit:2;">
    <g id="template-hex" serif:id="template hex" transform="matrix(1.63884,-2.22045e-16,2.22045e-16,1.63884,-1204.43,-1032.64)">
        <path d="M780.695,631.936L818.742,653.903L818.742,697.837L780.695,719.803L742.647,697.837L742.647,653.903L780.695,631.936Z" style="fill:rgb(42,42,103);"/>
        <clipPath id="_clip1">
            <path d="M780.695,631.936L818.742,653.903L818.742,697.837L780.695,719.803L742.647,697.837L742.647,653.903L780.695,631.936Z"/>
        </clipPath>
        <g clip-path="url(#_clip1)">
            <g id="template-hex1" serif:id="template hex" transform="matrix(1.42178,-8.68174e-16,8.68174e-16,1.42178,-329.473,-285.159)">
                <path d="M780.695,631.936L818.742,653.903L818.742,697.837L780.695,719.803L742.647,697.837L742.647,653.903L780.695,631.936Z" style="fill:rgb(42,42,103);"/>
            </g>
            <g id="template-hex2" serif:id="template hex" transform="matrix(-0.37033,-0.641431,0.641431,-0.37033,678.556,1426.82)">
                <path d="M780.695,631.936L818.742,653.903L818.742,697.837L780.695,719.803L742.647,697.837L742.647,653.903L780.695,631.936Z" style="fill:rgb(240,128,58);fill-opacity:0.8;"/>
            </g>
            <g id="template-hex3" serif:id="template hex" transform="matrix(0.37033,9.98561e-17,-9.98561e-17,0.37033,505.67,425.466)">
                <path d="M780.695,631.936L818.742,653.903L818.742,697.837L780.695,719.803L742.647,697.837L742.647,653.903L780.695,631.936Z" style="fill:rgb(240,128,58);fill-opacity:0.8;"/>
            </g>
            <g id="template-hex4" serif:id="template hex" transform="matrix(0.185165,-0.320715,0.320715,0.185165,426.188,788.82)">
                <path d="M780.695,631.936L818.742,653.903L818.742,697.837L780.695,719.803L742.647,697.837L742.647,653.903L780.695,631.936Z" style="fill:rgb(240,67,58);fill-opacity:0.8;"/>
            </g>
            <g id="template-hex5" serif:id="template hex" transform="matrix(-0.74066,-2.04932e-16,2.04932e-16,-0.74066,1379.83,1139.77)">
                <path d="M780.695,631.936L818.742,653.903L818.742,697.837L780.695,719.803L742.647,697.837L742.647,653.903L780.695,631.936Z" style="fill:rgb(240,67,58);fill-opacity:0.8;"/>
            </g>
            <g id="template-hex6" serif:id="template hex" transform="matrix(-0.185165,-0.320715,0.320715,-0.185165,701.337,1039.27)">
                <path d="M780.695,631.936L818.742,653.903L818.742,697.837L780.695,719.803L742.647,697.837L742.647,653.903L780.695,631.936Z" style="fill:rgb(201,40,62);fill-opacity:0.8;"/>
            </g>
            <g id="template-hex7" serif:id="template hex" transform="matrix(-0.37033,0.641431,-0.641431,-0.37033,1482.09,388.875)">
                <path d="M780.695,631.936L818.742,653.903L818.742,697.837L780.695,719.803L742.647,697.837L742.647,653.903L780.695,631.936Z" style="fill:rgb(201,40,62);fill-opacity:0.8;"/>
            </g>
            <g id="template-hex8" serif:id="template hex" transform="matrix(-0.37033,-5.01756e-17,5.01756e-17,-0.37033,1055.72,926.056)">
                <path d="M780.695,631.936L818.742,653.903L818.742,697.837L780.695,719.803L742.647,697.837L742.647,653.903L780.695,631.936Z" style="fill:rgb(130,3,51);fill-opacity:0.8;"/>
            </g>
            <g id="template-hex9" serif:id="template hex" transform="matrix(0.37033,0.641431,-0.641431,0.37033,882.833,-75.2953)">
                <path d="M780.695,631.936L818.742,653.903L818.742,697.837L780.695,719.803L742.647,697.837L742.647,653.903L780.695,631.936Z" style="fill:rgb(130,3,51);fill-opacity:0.8;"/>
            </g>
            <g id="template-hex10" serif:id="template hex" transform="matrix(-0.185165,0.320715,-0.320715,-0.185165,1134.75,562.73)">
                <path d="M780.695,631.936L818.742,653.903L818.742,697.837L780.695,719.803L742.647,697.837L742.647,653.903L780.695,631.936Z" style="fill:rgb(84,0,50);fill-opacity:0.8;"/>
            </g>
            <g id="template-hex11" serif:id="template hex" transform="matrix(0.74066,7.16557e-16,-7.16557e-16,0.74066,181.113,211.778)">
                <path d="M780.695,631.936L818.742,653.903L818.742,697.837L780.695,719.803L742.647,697.837L742.647,653.903L780.695,631.936Z" style="fill:rgb(84,0,50);fill-opacity:0.8;"/>
            </g>
            <g id="template-hex12" serif:id="template hex" transform="matrix(0.185165,0.320715,-0.320715,0.185165,859.835,312.625)">
                <path d="M780.695,631.936L818.742,653.903L818.742,697.837L780.695,719.803L742.647,697.837L742.647,653.903L780.695,631.936Z" style="fill:rgb(46,17,45);fill-opacity:0.8;"/>
            </g>
            <g id="template-hex13" serif:id="template hex" transform="matrix(0.37033,-0.641431,0.641431,0.37033,79.0821,963.024)">
                <path d="M780.695,631.936L818.742,653.903L818.742,697.837L780.695,719.803L742.647,697.837L742.647,653.903L780.695,631.936Z" style="fill:rgb(46,17,45);fill-opacity:0.8;"/>
            </g>
        </g>
    </g>
</svg>
