<?xml version="1.0" encoding="UTF-8" standalone="no"?>
<svg
   xmlns:dc="http://purl.org/dc/elements/1.1/"
   xmlns:cc="http://creativecommons.org/ns#"
   xmlns:rdf="http://www.w3.org/1999/02/22-rdf-syntax-ns#"
   xmlns:svg="http://www.w3.org/2000/svg"
   xmlns="http://www.w3.org/2000/svg"
   xmlns:sodipodi="http://sodipodi.sourceforge.net/DTD/sodipodi-0.dtd"
   xmlns:inkscape="http://www.inkscape.org/namespaces/inkscape"
   width="68.035126"
   height="2.15712"
   viewBox="0 0 68.035125 2.15712"
   version="1.1"
   id="svg416"
   sodipodi:docname="p2pcommons-hex.svg"
   inkscape:version="0.92.3 (2405546, 2018-03-11)"
   inkscape:export-filename="/home/chjh/Downloads/hypergraph.png"
   inkscape:export-xdpi="927.24744"
   inkscape:export-ydpi="927.24744">
  <metadata
     id="metadata422">
    <rdf:RDF>
      <cc:Work
         rdf:about="">
        <dc:format>image/svg+xml</dc:format>
        <dc:type
           rdf:resource="http://purl.org/dc/dcmitype/StillImage" />
        <dc:title></dc:title>
      </cc:Work>
    </rdf:RDF>
  </metadata>
  <defs
     id="defs420" />
  <sodipodi:namedview
     pagecolor="#ffffff"
     bordercolor="#666666"
     borderopacity="1"
     objecttolerance="10"
     gridtolerance="10"
     guidetolerance="10"
     inkscape:pageopacity="0"
     inkscape:pageshadow="2"
     inkscape:window-width="1920"
     inkscape:window-height="1052"
     id="namedview418"
     showgrid="true"
     inkscape:zoom="5.6568542"
     inkscape:cx="41.74159"
     inkscape:cy="19.491774"
     inkscape:window-x="0"
     inkscape:window-y="1080"
     inkscape:window-maximized="1"
     inkscape:current-layer="svg416">
    <inkscape:grid
       type="xygrid"
       id="grid463"
       originx="-69.670509"
       originy="-98.572624" />
  </sodipodi:namedview>
  <path
     d="m -30.245511,36.072741 v -69.11 l 60,-34.561 60,34.561 v 69.11 l -60,34.56 z"
     id="path412"
     inkscape:connector-curvature="0"
     style="fill:#333333" />
  <path
     d="m 29.254489,-64.712259 57.5,33.119 v 66.221 l -57.5,33.119 -57.5,-33.119 v -66.221 z m 0,-5.771 -62.5,36 v 72.001 l 62.5,36 62.5,-36 v -72.001 z"
     id="path414"
     style="fill:#ffffff"
     inkscape:connector-curvature="0" />
  <g
     inkscape:groupmode="layer"
     id="layer7"
     inkscape:label="Blocks"
     style="display:inline;opacity:1"
     transform="translate(-69.670511,-97.695259)">
    <g
       inkscape:groupmode="layer"
       id="layer1"
       inkscape:label="Block1"
       style="opacity:1" />
    <g
       inkscape:groupmode="layer"
       id="layer3"
       inkscape:label="Block3"
       style="opacity:1" />
    <g
       inkscape:groupmode="layer"
       id="layer4"
       inkscape:label="Block4"
       style="opacity:1" />
    <g
       inkscape:groupmode="layer"
       id="layer5"
       inkscape:label="Block5"
       style="opacity:1" />
    <g
       inkscape:groupmode="layer"
       id="layer6"
       inkscape:label="Block6"
       style="display:inline;opacity:1" />
  </g>
  <g
     inkscape:groupmode="layer"
     id="layer2"
     inkscape:label="Block2"
     style="opacity:1"
     transform="translate(-69.670511,-97.695259)" />
  <g
     style="display:inline;opacity:1"
     transform="matrix(0.05374864,0,0,0.05374864,15.006815,-13.766875)"
     id="Layer_2-6">
    <path
       style="fill:#75432e"
       inkscape:connector-curvature="0"
       d="m 96.161,127.77 c -5.168,0 -10.223,-2.572 -13.183,-7.267 C 78.861,113.972 75.366,107.97 72.282,102.674 59.106,80.046 53.092,69.717 25.112,60.191 16.974,57.42 12.623,48.577 15.394,40.439 18.165,32.3 27.007,27.949 35.146,30.721 c 38.995,13.277 49.5,31.318 64.04,56.288 3.099,5.322 6.303,10.824 10.128,16.892 4.585,7.273 2.406,16.885 -4.867,21.469 -2.577,1.625 -5.449,2.4 -8.286,2.4 z"
       id="path2-73" />
  </g>
  <rect
     style="fill:#d9f0c0;fill-opacity:1;stroke:#93c666;stroke-width:0.6719988;stroke-opacity:0.11317946"
     id="rect2260"
     width="2.0967431"
     height="110"
     x="28.23275"
     y="-64.270256" />
  <rect
     style="fill:#d9f0c0;fill-opacity:1;stroke:#93c666;stroke-width:0.72334957;stroke-opacity:0.11317946"
     id="rect2260-1"
     width="2.5629776"
     height="104.26838"
     x="17.81012"
     y="-65.140633"
     transform="matrix(0.50363031,0.86391927,-0.85975384,0.51070865,0,0)" />
  <rect
     style="fill:#d9f0c0;fill-opacity:1;stroke:#93c666;stroke-width:0.7130782;stroke-opacity:0.11317946"
     id="rect2260-1-3"
     width="2.5265841"
     height="102.7878"
     x="10.791411"
     y="-9.5821075"
     transform="matrix(0.49636088,-0.86811628,0.87216359,0.48921435,0,0)" />
  <g
     style="display:inline;opacity:1"
     transform="matrix(0.05374864,0,0,0.05374864,15.006815,-13.766875)"
     id="Layer_3-6">
    <path
       style="fill:#ace075"
       inkscape:connector-curvature="0"
       d="M 476.633,208.416 C 401.213,132.996 268.842,146.067 214.023,91.249 159.204,36.431 120.165,53.354 84.373,89.147 48.581,124.94 22.097,173.539 76.915,228.358 c 54.818,54.819 51.307,177.629 126.727,253.049 52.247,52.247 155.713,33.491 231.097,-41.893 75.384,-75.384 94.142,-178.851 41.894,-231.098 z"
       id="path5-5" />
  </g>
  <g
     style="display:inline;opacity:1"
     transform="matrix(0.05374864,0,0,0.05374864,15.006815,-13.766875)"
     id="Layer_4-6">
    <path
       style="fill:#c6ed98"
       inkscape:connector-curvature="0"
       d="m 99.029,213.896 c -5.83,0 -11.604,-2.561 -15.517,-7.477 -12.536,-15.752 -19.867,-35.912 -20.643,-56.768 -0.407,-10.936 8.128,-20.131 19.064,-20.538 10.939,-0.401 20.131,8.128 20.538,19.064 0.464,12.463 4.743,24.383 12.049,33.563 6.814,8.563 5.397,21.028 -3.165,27.843 -3.646,2.904 -8.001,4.313 -12.326,4.313 z"
       id="path8-3" />
  </g>
  <g
     style="display:inline;opacity:1"
     transform="matrix(0.05374864,0,0,0.05374864,15.006815,-13.766875)"
     id="Layer_5-9">
    <path
       style="fill:#16992b"
       inkscape:connector-curvature="0"
       d="m 77.416,82.135 c 0,0 0.035,-0.209 0.103,-0.614 0.069,-0.404 0.162,-1.018 0.326,-1.751 0.298,-1.513 0.824,-3.591 1.573,-6.109 0.37,-1.265 0.846,-2.561 1.327,-4.03 0.534,-1.385 1.105,-2.893 1.743,-4.458 1.305,-3.086 2.901,-6.37 4.802,-9.694 1.901,-3.326 4.108,-6.692 6.616,-9.974 2.509,-3.281 5.302,-6.502 8.387,-9.524 3.079,-3.029 6.435,-5.881 10.012,-8.51 3.57,-2.64 7.399,-5 11.32,-7.21 7.848,-4.412 16.194,-8.024 24.53,-10.591 4.175,-1.272 8.322,-2.324 12.38,-3.12 4.056,-0.8 8.014,-1.356 11.774,-1.701 3.766,-0.334 7.302,-0.506 10.575,-0.436 0.81,0.004 1.594,0.008 2.351,0.012 0.778,0.037 1.527,0.074 2.248,0.108 0.722,0.038 1.415,0.074 2.077,0.108 0.678,0.061 1.325,0.118 1.939,0.173 2.449,0.209 4.465,0.52 5.852,0.754 0.686,0.104 1.251,0.247 1.613,0.313 0.368,0.076 0.558,0.115 0.558,0.115 2.463,0.506 4.05,2.912 3.544,5.375 -0.014,0.071 -0.035,0.156 -0.052,0.225 0,0 -0.049,0.188 -0.143,0.551 -0.1,0.354 -0.221,0.924 -0.429,1.586 -0.401,1.349 -1.009,3.296 -1.898,5.587 -0.221,0.575 -0.454,1.181 -0.698,1.817 -0.26,0.61 -0.533,1.247 -0.817,1.912 -0.286,0.662 -0.583,1.351 -0.892,2.066 -0.329,0.681 -0.671,1.387 -1.023,2.116 -1.378,2.97 -3.088,6.069 -5.046,9.304 -1.964,3.224 -4.206,6.534 -6.709,9.824 -2.5,3.294 -5.27,6.554 -8.25,9.744 -5.973,6.356 -12.89,12.261 -20.306,17.366 -3.711,2.548 -7.514,4.947 -11.456,6.992 -3.935,2.055 -7.973,3.813 -12.048,5.245 -4.071,1.44 -8.193,2.531 -12.243,3.339 -4.051,0.807 -8.044,1.308 -11.867,1.551 -3.822,0.244 -7.473,0.232 -10.819,0.046 -1.687,-0.115 -3.292,-0.266 -4.77,-0.397 -1.531,-0.214 -2.904,-0.357 -4.203,-0.582 -2.59,-0.435 -4.687,-0.877 -6.178,-1.276 -0.73,-0.175 -1.322,-0.361 -1.716,-0.477 -0.394,-0.117 -0.597,-0.178 -0.597,-0.178 -2.437,-0.722 -3.905,-3.15 -3.49,-5.597 z"
       id="path11-4" />
  </g>
  <path
     inkscape:connector-curvature="0"
     d="m 29.25449,-38.342899 35.811,20.626513 v 41.242437 l -35.811,20.62651 -35.8110005,-20.62651 v -41.242437 z m 0,-3.594179 -38.9250005,22.4208 v 44.842219 l 38.9250005,22.4208 38.925,-22.4208 v -44.842219 z"
     id="path414-8"
     style="fill:#ace075;fill-opacity:0.45320201;stroke:#93c666;stroke-width:0.62279999;stroke-opacity:0.11317946" />
  <g
     style="display:inline;opacity:1"
     transform="matrix(0.03062621,0,0,0.03062621,57.296609,14.178921)"
     id="Layer_2-6-0">
    <path
       style="fill:#75432e"
       inkscape:connector-curvature="0"
       d="m 96.161,127.77 c -5.168,0 -10.223,-2.572 -13.183,-7.267 C 78.861,113.972 75.366,107.97 72.282,102.674 59.106,80.046 53.092,69.717 25.112,60.191 16.974,57.42 12.623,48.577 15.394,40.439 18.165,32.3 27.007,27.949 35.146,30.721 c 38.995,13.277 49.5,31.318 64.04,56.288 3.099,5.322 6.303,10.824 10.128,16.892 4.585,7.273 2.406,16.885 -4.867,21.469 -2.577,1.625 -5.449,2.4 -8.286,2.4 z"
       id="path2-73-3" />
  </g>
  <g
     style="display:inline;opacity:1"
     transform="matrix(0.03062621,0,0,0.03062621,57.296609,14.178921)"
     id="Layer_3-6-0">
    <path
       style="fill:#ace075"
       inkscape:connector-curvature="0"
       d="M 476.633,208.416 C 401.213,132.996 268.842,146.067 214.023,91.249 159.204,36.431 120.165,53.354 84.373,89.147 48.581,124.94 22.097,173.539 76.915,228.358 c 54.818,54.819 51.307,177.629 126.727,253.049 52.247,52.247 155.713,33.491 231.097,-41.893 75.384,-75.384 94.142,-178.851 41.894,-231.098 z"
       id="path5-5-9" />
  </g>
  <g
     style="display:inline;opacity:1"
     transform="matrix(0.03062621,0,0,0.03062621,57.296609,14.178921)"
     id="Layer_4-6-2">
    <path
       style="fill:#c6ed98"
       inkscape:connector-curvature="0"
       d="m 99.029,213.896 c -5.83,0 -11.604,-2.561 -15.517,-7.477 -12.536,-15.752 -19.867,-35.912 -20.643,-56.768 -0.407,-10.936 8.128,-20.131 19.064,-20.538 10.939,-0.401 20.131,8.128 20.538,19.064 0.464,12.463 4.743,24.383 12.049,33.563 6.814,8.563 5.397,21.028 -3.165,27.843 -3.646,2.904 -8.001,4.313 -12.326,4.313 z"
       id="path8-3-5" />
  </g>
  <g
     style="display:inline;opacity:1"
     transform="matrix(0.03062621,0,0,0.03062621,57.296609,14.178921)"
     id="Layer_5-9-4">
    <path
       style="fill:#16992b"
       inkscape:connector-curvature="0"
       d="m 77.416,82.135 c 0,0 0.035,-0.209 0.103,-0.614 0.069,-0.404 0.162,-1.018 0.326,-1.751 0.298,-1.513 0.824,-3.591 1.573,-6.109 0.37,-1.265 0.846,-2.561 1.327,-4.03 0.534,-1.385 1.105,-2.893 1.743,-4.458 1.305,-3.086 2.901,-6.37 4.802,-9.694 1.901,-3.326 4.108,-6.692 6.616,-9.974 2.509,-3.281 5.302,-6.502 8.387,-9.524 3.079,-3.029 6.435,-5.881 10.012,-8.51 3.57,-2.64 7.399,-5 11.32,-7.21 7.848,-4.412 16.194,-8.024 24.53,-10.591 4.175,-1.272 8.322,-2.324 12.38,-3.12 4.056,-0.8 8.014,-1.356 11.774,-1.701 3.766,-0.334 7.302,-0.506 10.575,-0.436 0.81,0.004 1.594,0.008 2.351,0.012 0.778,0.037 1.527,0.074 2.248,0.108 0.722,0.038 1.415,0.074 2.077,0.108 0.678,0.061 1.325,0.118 1.939,0.173 2.449,0.209 4.465,0.52 5.852,0.754 0.686,0.104 1.251,0.247 1.613,0.313 0.368,0.076 0.558,0.115 0.558,0.115 2.463,0.506 4.05,2.912 3.544,5.375 -0.014,0.071 -0.035,0.156 -0.052,0.225 0,0 -0.049,0.188 -0.143,0.551 -0.1,0.354 -0.221,0.924 -0.429,1.586 -0.401,1.349 -1.009,3.296 -1.898,5.587 -0.221,0.575 -0.454,1.181 -0.698,1.817 -0.26,0.61 -0.533,1.247 -0.817,1.912 -0.286,0.662 -0.583,1.351 -0.892,2.066 -0.329,0.681 -0.671,1.387 -1.023,2.116 -1.378,2.97 -3.088,6.069 -5.046,9.304 -1.964,3.224 -4.206,6.534 -6.709,9.824 -2.5,3.294 -5.27,6.554 -8.25,9.744 -5.973,6.356 -12.89,12.261 -20.306,17.366 -3.711,2.548 -7.514,4.947 -11.456,6.992 -3.935,2.055 -7.973,3.813 -12.048,5.245 -4.071,1.44 -8.193,2.531 -12.243,3.339 -4.051,0.807 -8.044,1.308 -11.867,1.551 -3.822,0.244 -7.473,0.232 -10.819,0.046 -1.687,-0.115 -3.292,-0.266 -4.77,-0.397 -1.531,-0.214 -2.904,-0.357 -4.203,-0.582 -2.59,-0.435 -4.687,-0.877 -6.178,-1.276 -0.73,-0.175 -1.322,-0.361 -1.716,-0.477 -0.394,-0.117 -0.597,-0.178 -0.597,-0.178 -2.437,-0.722 -3.905,-3.15 -3.49,-5.597 z"
       id="path11-4-0" />
  </g>
  <g
     style="display:inline;opacity:1"
     transform="matrix(0.03062621,0,0,0.03062621,22.384442,36.816631)"
     id="Layer_2-6-5">
    <path
       style="fill:#75432e"
       inkscape:connector-curvature="0"
       d="m 96.161,127.77 c -5.168,0 -10.223,-2.572 -13.183,-7.267 C 78.861,113.972 75.366,107.97 72.282,102.674 59.106,80.046 53.092,69.717 25.112,60.191 16.974,57.42 12.623,48.577 15.394,40.439 18.165,32.3 27.007,27.949 35.146,30.721 c 38.995,13.277 49.5,31.318 64.04,56.288 3.099,5.322 6.303,10.824 10.128,16.892 4.585,7.273 2.406,16.885 -4.867,21.469 -2.577,1.625 -5.449,2.4 -8.286,2.4 z"
       id="path2-73-9" />
  </g>
  <g
     style="display:inline;opacity:1"
     transform="matrix(0.03062621,0,0,0.03062621,22.384442,36.816631)"
     id="Layer_3-6-4">
    <path
       style="fill:#ace075"
       inkscape:connector-curvature="0"
       d="M 476.633,208.416 C 401.213,132.996 268.842,146.067 214.023,91.249 159.204,36.431 120.165,53.354 84.373,89.147 48.581,124.94 22.097,173.539 76.915,228.358 c 54.818,54.819 51.307,177.629 126.727,253.049 52.247,52.247 155.713,33.491 231.097,-41.893 75.384,-75.384 94.142,-178.851 41.894,-231.098 z"
       id="path5-5-6" />
  </g>
  <g
     style="display:inline;opacity:1"
     transform="matrix(0.03062621,0,0,0.03062621,22.384442,36.816631)"
     id="Layer_4-6-9">
    <path
       style="fill:#c6ed98"
       inkscape:connector-curvature="0"
       d="m 99.029,213.896 c -5.83,0 -11.604,-2.561 -15.517,-7.477 -12.536,-15.752 -19.867,-35.912 -20.643,-56.768 -0.407,-10.936 8.128,-20.131 19.064,-20.538 10.939,-0.401 20.131,8.128 20.538,19.064 0.464,12.463 4.743,24.383 12.049,33.563 6.814,8.563 5.397,21.028 -3.165,27.843 -3.646,2.904 -8.001,4.313 -12.326,4.313 z"
       id="path8-3-2" />
  </g>
  <g
     style="display:inline;opacity:1"
     transform="matrix(0.03062621,0,0,0.03062621,22.384442,36.816631)"
     id="Layer_5-9-2">
    <path
       style="fill:#16992b"
       inkscape:connector-curvature="0"
       d="m 77.416,82.135 c 0,0 0.035,-0.209 0.103,-0.614 0.069,-0.404 0.162,-1.018 0.326,-1.751 0.298,-1.513 0.824,-3.591 1.573,-6.109 0.37,-1.265 0.846,-2.561 1.327,-4.03 0.534,-1.385 1.105,-2.893 1.743,-4.458 1.305,-3.086 2.901,-6.37 4.802,-9.694 1.901,-3.326 4.108,-6.692 6.616,-9.974 2.509,-3.281 5.302,-6.502 8.387,-9.524 3.079,-3.029 6.435,-5.881 10.012,-8.51 3.57,-2.64 7.399,-5 11.32,-7.21 7.848,-4.412 16.194,-8.024 24.53,-10.591 4.175,-1.272 8.322,-2.324 12.38,-3.12 4.056,-0.8 8.014,-1.356 11.774,-1.701 3.766,-0.334 7.302,-0.506 10.575,-0.436 0.81,0.004 1.594,0.008 2.351,0.012 0.778,0.037 1.527,0.074 2.248,0.108 0.722,0.038 1.415,0.074 2.077,0.108 0.678,0.061 1.325,0.118 1.939,0.173 2.449,0.209 4.465,0.52 5.852,0.754 0.686,0.104 1.251,0.247 1.613,0.313 0.368,0.076 0.558,0.115 0.558,0.115 2.463,0.506 4.05,2.912 3.544,5.375 -0.014,0.071 -0.035,0.156 -0.052,0.225 0,0 -0.049,0.188 -0.143,0.551 -0.1,0.354 -0.221,0.924 -0.429,1.586 -0.401,1.349 -1.009,3.296 -1.898,5.587 -0.221,0.575 -0.454,1.181 -0.698,1.817 -0.26,0.61 -0.533,1.247 -0.817,1.912 -0.286,0.662 -0.583,1.351 -0.892,2.066 -0.329,0.681 -0.671,1.387 -1.023,2.116 -1.378,2.97 -3.088,6.069 -5.046,9.304 -1.964,3.224 -4.206,6.534 -6.709,9.824 -2.5,3.294 -5.27,6.554 -8.25,9.744 -5.973,6.356 -12.89,12.261 -20.306,17.366 -3.711,2.548 -7.514,4.947 -11.456,6.992 -3.935,2.055 -7.973,3.813 -12.048,5.245 -4.071,1.44 -8.193,2.531 -12.243,3.339 -4.051,0.807 -8.044,1.308 -11.867,1.551 -3.822,0.244 -7.473,0.232 -10.819,0.046 -1.687,-0.115 -3.292,-0.266 -4.77,-0.397 -1.531,-0.214 -2.904,-0.357 -4.203,-0.582 -2.59,-0.435 -4.687,-0.877 -6.178,-1.276 -0.73,-0.175 -1.322,-0.361 -1.716,-0.477 -0.394,-0.117 -0.597,-0.178 -0.597,-0.178 -2.437,-0.722 -3.905,-3.15 -3.49,-5.597 z"
       id="path11-4-4" />
  </g>
  <g
     style="display:inline;opacity:1"
     transform="matrix(0.03062621,0,0,0.03062621,-14.267973,14.346751)"
     id="Layer_2-6-7">
    <path
       style="fill:#75432e"
       inkscape:connector-curvature="0"
       d="m 96.161,127.77 c -5.168,0 -10.223,-2.572 -13.183,-7.267 C 78.861,113.972 75.366,107.97 72.282,102.674 59.106,80.046 53.092,69.717 25.112,60.191 16.974,57.42 12.623,48.577 15.394,40.439 18.165,32.3 27.007,27.949 35.146,30.721 c 38.995,13.277 49.5,31.318 64.04,56.288 3.099,5.322 6.303,10.824 10.128,16.892 4.585,7.273 2.406,16.885 -4.867,21.469 -2.577,1.625 -5.449,2.4 -8.286,2.4 z"
       id="path2-73-7" />
  </g>
  <g
     style="display:inline;opacity:1"
     transform="matrix(0.03062621,0,0,0.03062621,-14.267973,14.346751)"
     id="Layer_3-6-5">
    <path
       style="fill:#ace075"
       inkscape:connector-curvature="0"
       d="M 476.633,208.416 C 401.213,132.996 268.842,146.067 214.023,91.249 159.204,36.431 120.165,53.354 84.373,89.147 48.581,124.94 22.097,173.539 76.915,228.358 c 54.818,54.819 51.307,177.629 126.727,253.049 52.247,52.247 155.713,33.491 231.097,-41.893 75.384,-75.384 94.142,-178.851 41.894,-231.098 z"
       id="path5-5-4" />
  </g>
  <g
     style="display:inline;opacity:1"
     transform="matrix(0.03062621,0,0,0.03062621,-14.267973,14.346751)"
     id="Layer_4-6-8">
    <path
       style="fill:#c6ed98"
       inkscape:connector-curvature="0"
       d="m 99.029,213.896 c -5.83,0 -11.604,-2.561 -15.517,-7.477 -12.536,-15.752 -19.867,-35.912 -20.643,-56.768 -0.407,-10.936 8.128,-20.131 19.064,-20.538 10.939,-0.401 20.131,8.128 20.538,19.064 0.464,12.463 4.743,24.383 12.049,33.563 6.814,8.563 5.397,21.028 -3.165,27.843 -3.646,2.904 -8.001,4.313 -12.326,4.313 z"
       id="path8-3-1" />
  </g>
  <g
     style="display:inline;opacity:1"
     transform="matrix(0.03062621,0,0,0.03062621,-14.267973,14.346751)"
     id="Layer_5-9-28">
    <path
       style="fill:#16992b"
       inkscape:connector-curvature="0"
       d="m 77.416,82.135 c 0,0 0.035,-0.209 0.103,-0.614 0.069,-0.404 0.162,-1.018 0.326,-1.751 0.298,-1.513 0.824,-3.591 1.573,-6.109 0.37,-1.265 0.846,-2.561 1.327,-4.03 0.534,-1.385 1.105,-2.893 1.743,-4.458 1.305,-3.086 2.901,-6.37 4.802,-9.694 1.901,-3.326 4.108,-6.692 6.616,-9.974 2.509,-3.281 5.302,-6.502 8.387,-9.524 3.079,-3.029 6.435,-5.881 10.012,-8.51 3.57,-2.64 7.399,-5 11.32,-7.21 7.848,-4.412 16.194,-8.024 24.53,-10.591 4.175,-1.272 8.322,-2.324 12.38,-3.12 4.056,-0.8 8.014,-1.356 11.774,-1.701 3.766,-0.334 7.302,-0.506 10.575,-0.436 0.81,0.004 1.594,0.008 2.351,0.012 0.778,0.037 1.527,0.074 2.248,0.108 0.722,0.038 1.415,0.074 2.077,0.108 0.678,0.061 1.325,0.118 1.939,0.173 2.449,0.209 4.465,0.52 5.852,0.754 0.686,0.104 1.251,0.247 1.613,0.313 0.368,0.076 0.558,0.115 0.558,0.115 2.463,0.506 4.05,2.912 3.544,5.375 -0.014,0.071 -0.035,0.156 -0.052,0.225 0,0 -0.049,0.188 -0.143,0.551 -0.1,0.354 -0.221,0.924 -0.429,1.586 -0.401,1.349 -1.009,3.296 -1.898,5.587 -0.221,0.575 -0.454,1.181 -0.698,1.817 -0.26,0.61 -0.533,1.247 -0.817,1.912 -0.286,0.662 -0.583,1.351 -0.892,2.066 -0.329,0.681 -0.671,1.387 -1.023,2.116 -1.378,2.97 -3.088,6.069 -5.046,9.304 -1.964,3.224 -4.206,6.534 -6.709,9.824 -2.5,3.294 -5.27,6.554 -8.25,9.744 -5.973,6.356 -12.89,12.261 -20.306,17.366 -3.711,2.548 -7.514,4.947 -11.456,6.992 -3.935,2.055 -7.973,3.813 -12.048,5.245 -4.071,1.44 -8.193,2.531 -12.243,3.339 -4.051,0.807 -8.044,1.308 -11.867,1.551 -3.822,0.244 -7.473,0.232 -10.819,0.046 -1.687,-0.115 -3.292,-0.266 -4.77,-0.397 -1.531,-0.214 -2.904,-0.357 -4.203,-0.582 -2.59,-0.435 -4.687,-0.877 -6.178,-1.276 -0.73,-0.175 -1.322,-0.361 -1.716,-0.477 -0.394,-0.117 -0.597,-0.178 -0.597,-0.178 -2.437,-0.722 -3.905,-3.15 -3.49,-5.597 z"
       id="path11-4-9" />
  </g>
  <g
     style="display:inline;opacity:1"
     transform="matrix(0.03062621,0,0,0.03062621,-12.703394,-25.82108)"
     id="Layer_2-6-3">
    <path
       style="fill:#75432e"
       inkscape:connector-curvature="0"
       d="m 96.161,127.77 c -5.168,0 -10.223,-2.572 -13.183,-7.267 C 78.861,113.972 75.366,107.97 72.282,102.674 59.106,80.046 53.092,69.717 25.112,60.191 16.974,57.42 12.623,48.577 15.394,40.439 18.165,32.3 27.007,27.949 35.146,30.721 c 38.995,13.277 49.5,31.318 64.04,56.288 3.099,5.322 6.303,10.824 10.128,16.892 4.585,7.273 2.406,16.885 -4.867,21.469 -2.577,1.625 -5.449,2.4 -8.286,2.4 z"
       id="path2-73-6" />
  </g>
  <g
     style="display:inline;opacity:1"
     transform="matrix(0.03062621,0,0,0.03062621,-12.703394,-25.82108)"
     id="Layer_3-6-8">
    <path
       style="fill:#ace075"
       inkscape:connector-curvature="0"
       d="M 476.633,208.416 C 401.213,132.996 268.842,146.067 214.023,91.249 159.204,36.431 120.165,53.354 84.373,89.147 48.581,124.94 22.097,173.539 76.915,228.358 c 54.818,54.819 51.307,177.629 126.727,253.049 52.247,52.247 155.713,33.491 231.097,-41.893 75.384,-75.384 94.142,-178.851 41.894,-231.098 z"
       id="path5-5-0" />
  </g>
  <g
     style="display:inline;opacity:1"
     transform="matrix(0.03062621,0,0,0.03062621,-12.703394,-25.82108)"
     id="Layer_4-6-21">
    <path
       style="fill:#c6ed98"
       inkscape:connector-curvature="0"
       d="m 99.029,213.896 c -5.83,0 -11.604,-2.561 -15.517,-7.477 -12.536,-15.752 -19.867,-35.912 -20.643,-56.768 -0.407,-10.936 8.128,-20.131 19.064,-20.538 10.939,-0.401 20.131,8.128 20.538,19.064 0.464,12.463 4.743,24.383 12.049,33.563 6.814,8.563 5.397,21.028 -3.165,27.843 -3.646,2.904 -8.001,4.313 -12.326,4.313 z"
       id="path8-3-0" />
  </g>
  <g
     style="display:inline;opacity:1"
     transform="matrix(0.03062621,0,0,0.03062621,-12.703394,-25.82108)"
     id="Layer_5-9-5">
    <path
       style="fill:#16992b"
       inkscape:connector-curvature="0"
       d="m 77.416,82.135 c 0,0 0.035,-0.209 0.103,-0.614 0.069,-0.404 0.162,-1.018 0.326,-1.751 0.298,-1.513 0.824,-3.591 1.573,-6.109 0.37,-1.265 0.846,-2.561 1.327,-4.03 0.534,-1.385 1.105,-2.893 1.743,-4.458 1.305,-3.086 2.901,-6.37 4.802,-9.694 1.901,-3.326 4.108,-6.692 6.616,-9.974 2.509,-3.281 5.302,-6.502 8.387,-9.524 3.079,-3.029 6.435,-5.881 10.012,-8.51 3.57,-2.64 7.399,-5 11.32,-7.21 7.848,-4.412 16.194,-8.024 24.53,-10.591 4.175,-1.272 8.322,-2.324 12.38,-3.12 4.056,-0.8 8.014,-1.356 11.774,-1.701 3.766,-0.334 7.302,-0.506 10.575,-0.436 0.81,0.004 1.594,0.008 2.351,0.012 0.778,0.037 1.527,0.074 2.248,0.108 0.722,0.038 1.415,0.074 2.077,0.108 0.678,0.061 1.325,0.118 1.939,0.173 2.449,0.209 4.465,0.52 5.852,0.754 0.686,0.104 1.251,0.247 1.613,0.313 0.368,0.076 0.558,0.115 0.558,0.115 2.463,0.506 4.05,2.912 3.544,5.375 -0.014,0.071 -0.035,0.156 -0.052,0.225 0,0 -0.049,0.188 -0.143,0.551 -0.1,0.354 -0.221,0.924 -0.429,1.586 -0.401,1.349 -1.009,3.296 -1.898,5.587 -0.221,0.575 -0.454,1.181 -0.698,1.817 -0.26,0.61 -0.533,1.247 -0.817,1.912 -0.286,0.662 -0.583,1.351 -0.892,2.066 -0.329,0.681 -0.671,1.387 -1.023,2.116 -1.378,2.97 -3.088,6.069 -5.046,9.304 -1.964,3.224 -4.206,6.534 -6.709,9.824 -2.5,3.294 -5.27,6.554 -8.25,9.744 -5.973,6.356 -12.89,12.261 -20.306,17.366 -3.711,2.548 -7.514,4.947 -11.456,6.992 -3.935,2.055 -7.973,3.813 -12.048,5.245 -4.071,1.44 -8.193,2.531 -12.243,3.339 -4.051,0.807 -8.044,1.308 -11.867,1.551 -3.822,0.244 -7.473,0.232 -10.819,0.046 -1.687,-0.115 -3.292,-0.266 -4.77,-0.397 -1.531,-0.214 -2.904,-0.357 -4.203,-0.582 -2.59,-0.435 -4.687,-0.877 -6.178,-1.276 -0.73,-0.175 -1.322,-0.361 -1.716,-0.477 -0.394,-0.117 -0.597,-0.178 -0.597,-0.178 -2.437,-0.722 -3.905,-3.15 -3.49,-5.597 z"
       id="path11-4-1" />
  </g>
  <g
     style="display:inline;opacity:1"
     transform="matrix(0.03062621,0,0,0.03062621,20.732027,-48.760732)"
     id="Layer_2-6-1">
    <path
       style="fill:#75432e"
       inkscape:connector-curvature="0"
       d="m 96.161,127.77 c -5.168,0 -10.223,-2.572 -13.183,-7.267 C 78.861,113.972 75.366,107.97 72.282,102.674 59.106,80.046 53.092,69.717 25.112,60.191 16.974,57.42 12.623,48.577 15.394,40.439 18.165,32.3 27.007,27.949 35.146,30.721 c 38.995,13.277 49.5,31.318 64.04,56.288 3.099,5.322 6.303,10.824 10.128,16.892 4.585,7.273 2.406,16.885 -4.867,21.469 -2.577,1.625 -5.449,2.4 -8.286,2.4 z"
       id="path2-73-0" />
  </g>
  <g
     style="display:inline;opacity:1"
     transform="matrix(0.03062621,0,0,0.03062621,20.732027,-48.760732)"
     id="Layer_3-6-85">
    <path
       style="fill:#ace075"
       inkscape:connector-curvature="0"
       d="M 476.633,208.416 C 401.213,132.996 268.842,146.067 214.023,91.249 159.204,36.431 120.165,53.354 84.373,89.147 48.581,124.94 22.097,173.539 76.915,228.358 c 54.818,54.819 51.307,177.629 126.727,253.049 52.247,52.247 155.713,33.491 231.097,-41.893 75.384,-75.384 94.142,-178.851 41.894,-231.098 z"
       id="path5-5-06" />
  </g>
  <g
     style="display:inline;opacity:1"
     transform="matrix(0.03062621,0,0,0.03062621,20.732027,-48.760732)"
     id="Layer_4-6-4">
    <path
       style="fill:#c6ed98"
       inkscape:connector-curvature="0"
       d="m 99.029,213.896 c -5.83,0 -11.604,-2.561 -15.517,-7.477 -12.536,-15.752 -19.867,-35.912 -20.643,-56.768 -0.407,-10.936 8.128,-20.131 19.064,-20.538 10.939,-0.401 20.131,8.128 20.538,19.064 0.464,12.463 4.743,24.383 12.049,33.563 6.814,8.563 5.397,21.028 -3.165,27.843 -3.646,2.904 -8.001,4.313 -12.326,4.313 z"
       id="path8-3-6" />
  </g>
  <g
     style="display:inline;opacity:1"
     transform="matrix(0.03062621,0,0,0.03062621,20.732027,-48.760732)"
     id="Layer_5-9-25">
    <path
       style="fill:#16992b"
       inkscape:connector-curvature="0"
       d="m 77.416,82.135 c 0,0 0.035,-0.209 0.103,-0.614 0.069,-0.404 0.162,-1.018 0.326,-1.751 0.298,-1.513 0.824,-3.591 1.573,-6.109 0.37,-1.265 0.846,-2.561 1.327,-4.03 0.534,-1.385 1.105,-2.893 1.743,-4.458 1.305,-3.086 2.901,-6.37 4.802,-9.694 1.901,-3.326 4.108,-6.692 6.616,-9.974 2.509,-3.281 5.302,-6.502 8.387,-9.524 3.079,-3.029 6.435,-5.881 10.012,-8.51 3.57,-2.64 7.399,-5 11.32,-7.21 7.848,-4.412 16.194,-8.024 24.53,-10.591 4.175,-1.272 8.322,-2.324 12.38,-3.12 4.056,-0.8 8.014,-1.356 11.774,-1.701 3.766,-0.334 7.302,-0.506 10.575,-0.436 0.81,0.004 1.594,0.008 2.351,0.012 0.778,0.037 1.527,0.074 2.248,0.108 0.722,0.038 1.415,0.074 2.077,0.108 0.678,0.061 1.325,0.118 1.939,0.173 2.449,0.209 4.465,0.52 5.852,0.754 0.686,0.104 1.251,0.247 1.613,0.313 0.368,0.076 0.558,0.115 0.558,0.115 2.463,0.506 4.05,2.912 3.544,5.375 -0.014,0.071 -0.035,0.156 -0.052,0.225 0,0 -0.049,0.188 -0.143,0.551 -0.1,0.354 -0.221,0.924 -0.429,1.586 -0.401,1.349 -1.009,3.296 -1.898,5.587 -0.221,0.575 -0.454,1.181 -0.698,1.817 -0.26,0.61 -0.533,1.247 -0.817,1.912 -0.286,0.662 -0.583,1.351 -0.892,2.066 -0.329,0.681 -0.671,1.387 -1.023,2.116 -1.378,2.97 -3.088,6.069 -5.046,9.304 -1.964,3.224 -4.206,6.534 -6.709,9.824 -2.5,3.294 -5.27,6.554 -8.25,9.744 -5.973,6.356 -12.89,12.261 -20.306,17.366 -3.711,2.548 -7.514,4.947 -11.456,6.992 -3.935,2.055 -7.973,3.813 -12.048,5.245 -4.071,1.44 -8.193,2.531 -12.243,3.339 -4.051,0.807 -8.044,1.308 -11.867,1.551 -3.822,0.244 -7.473,0.232 -10.819,0.046 -1.687,-0.115 -3.292,-0.266 -4.77,-0.397 -1.531,-0.214 -2.904,-0.357 -4.203,-0.582 -2.59,-0.435 -4.687,-0.877 -6.178,-1.276 -0.73,-0.175 -1.322,-0.361 -1.716,-0.477 -0.394,-0.117 -0.597,-0.178 -0.597,-0.178 -2.437,-0.722 -3.905,-3.15 -3.49,-5.597 z"
       id="path11-4-8" />
  </g>
  <g
     style="display:inline;opacity:1"
     transform="matrix(0.03062621,0,0,0.03062621,57.296609,-25.82108)"
     id="Layer_2-6-6">
    <path
       style="fill:#75432e"
       inkscape:connector-curvature="0"
       d="m 96.161,127.77 c -5.168,0 -10.223,-2.572 -13.183,-7.267 C 78.861,113.972 75.366,107.97 72.282,102.674 59.106,80.046 53.092,69.717 25.112,60.191 16.974,57.42 12.623,48.577 15.394,40.439 18.165,32.3 27.007,27.949 35.146,30.721 c 38.995,13.277 49.5,31.318 64.04,56.288 3.099,5.322 6.303,10.824 10.128,16.892 4.585,7.273 2.406,16.885 -4.867,21.469 -2.577,1.625 -5.449,2.4 -8.286,2.4 z"
       id="path2-73-2" />
  </g>
  <g
     style="display:inline;opacity:1"
     transform="matrix(0.03062621,0,0,0.03062621,57.296609,-25.82108)"
     id="Layer_3-6-84">
    <path
       style="fill:#ace075"
       inkscape:connector-curvature="0"
       d="M 476.633,208.416 C 401.213,132.996 268.842,146.067 214.023,91.249 159.204,36.431 120.165,53.354 84.373,89.147 48.581,124.94 22.097,173.539 76.915,228.358 c 54.818,54.819 51.307,177.629 126.727,253.049 52.247,52.247 155.713,33.491 231.097,-41.893 75.384,-75.384 94.142,-178.851 41.894,-231.098 z"
       id="path5-5-7" />
  </g>
  <g
     style="display:inline;opacity:1"
     transform="matrix(0.03062621,0,0,0.03062621,57.296609,-25.82108)"
     id="Layer_4-6-24">
    <path
       style="fill:#c6ed98"
       inkscape:connector-curvature="0"
       d="m 99.029,213.896 c -5.83,0 -11.604,-2.561 -15.517,-7.477 -12.536,-15.752 -19.867,-35.912 -20.643,-56.768 -0.407,-10.936 8.128,-20.131 19.064,-20.538 10.939,-0.401 20.131,8.128 20.538,19.064 0.464,12.463 4.743,24.383 12.049,33.563 6.814,8.563 5.397,21.028 -3.165,27.843 -3.646,2.904 -8.001,4.313 -12.326,4.313 z"
       id="path8-3-06" />
  </g>
  <g
     style="display:inline;opacity:1"
     transform="matrix(0.03062621,0,0,0.03062621,57.296609,-25.82108)"
     id="Layer_5-9-29">
    <path
       style="fill:#16992b"
       inkscape:connector-curvature="0"
       d="m 77.416,82.135 c 0,0 0.035,-0.209 0.103,-0.614 0.069,-0.404 0.162,-1.018 0.326,-1.751 0.298,-1.513 0.824,-3.591 1.573,-6.109 0.37,-1.265 0.846,-2.561 1.327,-4.03 0.534,-1.385 1.105,-2.893 1.743,-4.458 1.305,-3.086 2.901,-6.37 4.802,-9.694 1.901,-3.326 4.108,-6.692 6.616,-9.974 2.509,-3.281 5.302,-6.502 8.387,-9.524 3.079,-3.029 6.435,-5.881 10.012,-8.51 3.57,-2.64 7.399,-5 11.32,-7.21 7.848,-4.412 16.194,-8.024 24.53,-10.591 4.175,-1.272 8.322,-2.324 12.38,-3.12 4.056,-0.8 8.014,-1.356 11.774,-1.701 3.766,-0.334 7.302,-0.506 10.575,-0.436 0.81,0.004 1.594,0.008 2.351,0.012 0.778,0.037 1.527,0.074 2.248,0.108 0.722,0.038 1.415,0.074 2.077,0.108 0.678,0.061 1.325,0.118 1.939,0.173 2.449,0.209 4.465,0.52 5.852,0.754 0.686,0.104 1.251,0.247 1.613,0.313 0.368,0.076 0.558,0.115 0.558,0.115 2.463,0.506 4.05,2.912 3.544,5.375 -0.014,0.071 -0.035,0.156 -0.052,0.225 0,0 -0.049,0.188 -0.143,0.551 -0.1,0.354 -0.221,0.924 -0.429,1.586 -0.401,1.349 -1.009,3.296 -1.898,5.587 -0.221,0.575 -0.454,1.181 -0.698,1.817 -0.26,0.61 -0.533,1.247 -0.817,1.912 -0.286,0.662 -0.583,1.351 -0.892,2.066 -0.329,0.681 -0.671,1.387 -1.023,2.116 -1.378,2.97 -3.088,6.069 -5.046,9.304 -1.964,3.224 -4.206,6.534 -6.709,9.824 -2.5,3.294 -5.27,6.554 -8.25,9.744 -5.973,6.356 -12.89,12.261 -20.306,17.366 -3.711,2.548 -7.514,4.947 -11.456,6.992 -3.935,2.055 -7.973,3.813 -12.048,5.245 -4.071,1.44 -8.193,2.531 -12.243,3.339 -4.051,0.807 -8.044,1.308 -11.867,1.551 -3.822,0.244 -7.473,0.232 -10.819,0.046 -1.687,-0.115 -3.292,-0.266 -4.77,-0.397 -1.531,-0.214 -2.904,-0.357 -4.203,-0.582 -2.59,-0.435 -4.687,-0.877 -6.178,-1.276 -0.73,-0.175 -1.322,-0.361 -1.716,-0.477 -0.394,-0.117 -0.597,-0.178 -0.597,-0.178 -2.437,-0.722 -3.905,-3.15 -3.49,-5.597 z"
       id="path11-4-90" />
  </g>
</svg>
